<?xml version="1.0" encoding="UTF-8"?>
<svg id="svg" xmlns="http://www.w3.org/2000/svg" version="1.1" viewBox="0 0 400 400">
  <defs>
    <style>
      .cls-1 {
        fill: #fff;
        fill-rule: evenodd;
        stroke-width: 0px;
      }
    </style>
  </defs>
  <g id="svgg">
    <path id="path0" class="cls-1" d="M82.9,4.6C75.6,30.1,0,313.7.3,314.5c.3.9,311.7,85.6,314.5,85.5.6,0,1.6-2.1,2.4-4.7,7.4-26,82.9-309,82.6-309.8-.2-.6-28.8-8.8-63.6-18.2C191,28.1,86.5,0,85.4,0s-1.8,2.1-2.5,4.6M212.2,156.7c23.2,6.4,42.4,11.7,42.6,11.9.5.5-22.1,84.8-23,85.7-.6.7-85.4-21.9-86.5-23-.3-.3,21-81,22.5-85.1.6-1.6-1.2-2,44.5,10.5"/>
  </g>
</svg>